<?xml version="1.0" encoding="UTF-8" standalone="no"?>
<!-- Created with Inkscape (http://www.inkscape.org/) -->

<svg
   width="2160"
   height="2160"
   viewBox="0 0 571.49998 571.50003"
   version="1.1"
   id="svg5"
   inkscape:version="1.1 (c68e22c387, 2021-05-23)"
   sodipodi:docname="cat.svg"
   xmlns:inkscape="http://www.inkscape.org/namespaces/inkscape"
   xmlns:sodipodi="http://sodipodi.sourceforge.net/DTD/sodipodi-0.dtd"
   xmlns="http://www.w3.org/2000/svg"
   xmlns:svg="http://www.w3.org/2000/svg">
  <sodipodi:namedview
     id="namedview7"
     pagecolor="#505050"
     bordercolor="#ffffff"
     borderopacity="1"
     inkscape:pageshadow="0"
     inkscape:pageopacity="0"
     inkscape:pagecheckerboard="1"
     inkscape:document-units="px"
     showgrid="false"
     units="px"
     inkscape:zoom="0.34861111"
     inkscape:cx="744.38247"
     inkscape:cy="1054.1833"
     inkscape:window-width="2560"
     inkscape:window-height="1377"
     inkscape:window-x="1912"
     inkscape:window-y="-8"
     inkscape:window-maximized="1"
     inkscape:current-layer="layer1"
     fit-margin-top="0"
     fit-margin-left="0"
     fit-margin-right="0"
     fit-margin-bottom="0" />
  <defs
     id="defs2" />
  <g
     inkscape:label="Layer 1"
     inkscape:groupmode="layer"
     id="layer1"
     transform="translate(8.0836862,48.221597)">
    <path
       id="path12136"
       style="fill:#8e44ad;fill-opacity:1;stroke:none;stroke-width:0.264583px;stroke-linecap:butt;stroke-linejoin:miter;stroke-opacity:1"
       d="m 380.07452,47.40892 c -14.65092,-0.259353 -53.77163,39.314393 -66.59336,52.71306 a 142.875,142.875 0 0 1 75.05796,47.91336 c 1.78375,-24.01176 5.9697,-94.684443 -6.13348,-100.146863 -0.68405,-0.308723 -1.46439,-0.464214 -2.33112,-0.479557 z" />
    <path
       id="path11518"
       style="fill:#8e44ad;fill-opacity:1;stroke:none;stroke-width:0.264583px;stroke-linecap:butt;stroke-linejoin:miter;stroke-opacity:1"
       d="m 138.63964,71.883395 c -1.65003,0.05815 -3.01183,0.42778 -4.02507,1.161169 -11.30458,8.18229 9.53817,83.425176 15.07866,102.619576 a 142.875,142.875 0 0 1 63.92995,-64.63998 C 200.01543,101.5752 155.08387,71.303841 138.63964,71.883395 Z" />
    <ellipse
       style="fill:#8e44ad;fill-opacity:1;stroke-width:5.66891;stroke-linecap:round;stroke-linejoin:round"
       id="path4998"
       cx="240.21216"
       cy="159.19273"
       rx="20.492031"
       ry="36.852608" />
    <ellipse
       style="fill:#8e44ad;fill-opacity:1;stroke-width:5.66891;stroke-linecap:round;stroke-linejoin:round"
       id="ellipse5102"
       cx="310.89456"
       cy="159.19284"
       rx="20.492031"
       ry="36.852608" />
    <path
       style="fill:none;stroke:#8e44ad;stroke-width:13.2292;stroke-linecap:round;stroke-linejoin:round;stroke-miterlimit:4;stroke-dasharray:none;stroke-opacity:1"
       d="m 248.57149,323.49337 c 54.59491,41.24903 61.48846,-47.72799 61.48846,-47.72799 0,0 40.90253,61.22185 65.49078,15.09066"
       id="path5137"
       sodipodi:nodetypes="ccc" />
    <path
       style="fill:#8e44ad;fill-opacity:1;stroke:#8e44ad;stroke-width:13.2292;stroke-linecap:round;stroke-linejoin:round;stroke-miterlimit:4;stroke-dasharray:none;stroke-opacity:1"
       d="m 310.05995,275.76538 12.15786,-39.02132 -42.88434,8.95846 z"
       id="path7305" />
    <path
       style="fill:none;stroke:#8e44ad;stroke-width:11.6648;stroke-linecap:round;stroke-linejoin:round;stroke-miterlimit:4;stroke-dasharray:none;stroke-opacity:1"
       d="m 365.41798,214.07752 c 27.00331,-39.13859 61.90207,-50.19089 61.90207,-50.19089"
       id="path9729"
       sodipodi:nodetypes="cc" />
    <path
       style="fill:none;stroke:#8e44ad;stroke-width:11.2261;stroke-linecap:round;stroke-linejoin:round;stroke-miterlimit:4;stroke-dasharray:none;stroke-opacity:1"
       d="m 382.81897,238.7184 c 28.53005,-35.77949 62.77141,-44.06826 62.77141,-44.06826"
       id="path11186"
       sodipodi:nodetypes="cc" />
    <path
       style="fill:none;stroke:#8e44ad;stroke-width:10.5286;stroke-linecap:round;stroke-linejoin:round;stroke-miterlimit:4;stroke-dasharray:none;stroke-opacity:1"
       d="m 395.75376,258.65799 c 30.64391,-30.04949 63.46557,-33.8558 63.46557,-33.8558"
       id="path11188"
       sodipodi:nodetypes="cc" />
    <path
       style="fill:none;stroke:#8e44ad;stroke-width:12.3048;stroke-linecap:round;stroke-linejoin:round;stroke-miterlimit:4;stroke-dasharray:none;stroke-opacity:1"
       d="m 211.78487,243.3924 c -40.00793,-30.254 -78.62054,-29.76386 -78.62054,-29.76386"
       id="path11190"
       sodipodi:nodetypes="cc" />
    <path
       style="fill:none;stroke:#8e44ad;stroke-width:11.1101;stroke-linecap:round;stroke-linejoin:round;stroke-miterlimit:4;stroke-dasharray:none;stroke-opacity:1"
       d="m 208.69496,276.01385 c -37.66498,-25.14884 -72.4426,-22.66028 -72.4426,-22.66028"
       id="path11192"
       sodipodi:nodetypes="cc" />
    <path
       style="fill:none;stroke:#8e44ad;stroke-width:10.6536;stroke-linecap:round;stroke-linejoin:round;stroke-miterlimit:4;stroke-dasharray:none;stroke-opacity:1"
       d="M 213.83139,304.87638 C 174.64886,286.14887 141.97994,293.25879 141.97994,293.25879"
       id="path11194"
       sodipodi:nodetypes="cc" />
  </g>
</svg>
