<?xml version="1.0" encoding="UTF-8" standalone="no"?>
<!-- Created with Inkscape (http://www.inkscape.org/) -->

<svg
   width="2160"
   height="2160"
   viewBox="0 0 571.49998 571.50003"
   version="1.1"
   id="svg5"
   inkscape:version="1.1 (c68e22c387, 2021-05-23)"
   sodipodi:docname="dog.svg"
   xmlns:inkscape="http://www.inkscape.org/namespaces/inkscape"
   xmlns:sodipodi="http://sodipodi.sourceforge.net/DTD/sodipodi-0.dtd"
   xmlns="http://www.w3.org/2000/svg"
   xmlns:svg="http://www.w3.org/2000/svg">
  <sodipodi:namedview
     id="namedview7"
     pagecolor="#505050"
     bordercolor="#ffffff"
     borderopacity="1"
     inkscape:pageshadow="0"
     inkscape:pageopacity="0"
     inkscape:pagecheckerboard="1"
     inkscape:document-units="px"
     showgrid="false"
     units="px"
     inkscape:zoom="0.49301056"
     inkscape:cx="932.02872"
     inkscape:cy="1051.7016"
     inkscape:window-width="1920"
     inkscape:window-height="1001"
     inkscape:window-x="-9"
     inkscape:window-y="-9"
     inkscape:window-maximized="1"
     inkscape:current-layer="layer1"
     fit-margin-top="0"
     fit-margin-left="0"
     fit-margin-right="0"
     fit-margin-bottom="0" />
  <defs
     id="defs2" />
  <g
     inkscape:label="Layer 1"
     inkscape:groupmode="layer"
     id="layer1"
     transform="translate(8.0836862,48.221597)">
    <path
       id="path1649"
       style="fill:#8e44ad;fill-opacity:1;stroke:none;stroke-width:1.10361px;stroke-linecap:butt;stroke-linejoin:miter;stroke-opacity:1"
       d="M 1343.1719 483.65625 C 1278.055 484.01575 1215.1765 501.58781 1163.8281 546.55469 A 540 540 0 0 1 1550.6309 815.25781 C 1597.9957 840.44477 1637.3533 855.648 1659.1602 852.22266 C 1714.85 843.47524 1756.5355 727.56948 1738.332 661.03906 C 1726.3148 617.11834 1525.9583 482.64713 1343.1719 483.65625 z "
       transform="matrix(0.26458334,0,0,0.26458334,-8.0836862,-48.221597)" />
    <path
       id="path1204"
       style="fill:#8e44ad;fill-opacity:1;stroke:none;stroke-width:1.10361px;stroke-linecap:butt;stroke-linejoin:miter;stroke-opacity:1"
       d="M 720.85156 571.24219 C 518.66051 571.46288 308.07865 787.80569 305.76367 839.10156 C 302.65397 908.00722 368.83281 1011.8918 425.08203 1008.1641 C 455.15574 1006.1711 509.51786 963.0402 569.29297 905.67773 A 540 540 0 0 1 836.27344 598.45898 C 799.17842 579.34797 760.17517 571.19927 720.85156 571.24219 z "
       transform="matrix(0.26458334,0,0,0.26458334,-8.0836862,-48.221597)" />
    <ellipse
       style="fill:#8e44ad;fill-opacity:1;stroke-width:5.66891;stroke-linecap:round;stroke-linejoin:round"
       id="path4998"
       cx="240.21216"
       cy="159.19273"
       rx="20.492031"
       ry="36.852608" />
    <ellipse
       style="fill:#8e44ad;fill-opacity:1;stroke-width:5.66891;stroke-linecap:round;stroke-linejoin:round"
       id="ellipse5102"
       cx="310.89456"
       cy="159.19284"
       rx="20.492031"
       ry="36.852608" />
    <path
       style="fill:none;stroke:#8e44ad;stroke-width:13.2292;stroke-linecap:round;stroke-linejoin:round;stroke-miterlimit:4;stroke-dasharray:none;stroke-opacity:1"
       d="m 248.57149,323.49337 c 54.59491,41.24903 61.48846,-47.72799 61.48846,-47.72799 0,0 40.90253,61.22185 65.49078,15.09066"
       id="path5137"
       sodipodi:nodetypes="ccc" />
    <path
       style="fill:#8e44ad;fill-opacity:1;stroke:#8e44ad;stroke-width:13.2292;stroke-linecap:round;stroke-linejoin:round;stroke-miterlimit:4;stroke-dasharray:none;stroke-opacity:1"
       d="m 310.05995,275.76538 12.15786,-39.02132 -42.88434,8.95846 z"
       id="path7305" />
    <ellipse
       style="fill:#8e44ad;fill-opacity:1;stroke:none;stroke-width:13.2292;stroke-linecap:round;stroke-linejoin:round"
       id="path1673"
       cx="236.85417"
       cy="380.05054"
       rx="16.234228"
       ry="26.1626"
       transform="rotate(-13.628104)" />
  </g>
</svg>
