<?xml version="1.0" encoding="UTF-8" standalone="no"?>
<!-- Created with Inkscape (http://www.inkscape.org/) -->

<svg
   width="2160"
   height="2160"
   viewBox="0 0 571.49998 571.50003"
   version="1.1"
   id="svg5"
   inkscape:version="1.1 (c68e22c387, 2021-05-23)"
   sodipodi:docname="dog.svg"
   xmlns:inkscape="http://www.inkscape.org/namespaces/inkscape"
   xmlns:sodipodi="http://sodipodi.sourceforge.net/DTD/sodipodi-0.dtd"
   xmlns="http://www.w3.org/2000/svg"
   xmlns:svg="http://www.w3.org/2000/svg">
  <sodipodi:namedview
     id="namedview7"
     pagecolor="#505050"
     bordercolor="#ffffff"
     borderopacity="1"
     inkscape:pageshadow="0"
     inkscape:pageopacity="0"
     inkscape:pagecheckerboard="1"
     inkscape:document-units="px"
     showgrid="false"
     units="px"
     inkscape:zoom="0.49301056"
     inkscape:cx="1021.2763"
     inkscape:cy="1126.7507"
     inkscape:window-width="1920"
     inkscape:window-height="1001"
     inkscape:window-x="-9"
     inkscape:window-y="-9"
     inkscape:window-maximized="1"
     inkscape:current-layer="layer1"
     fit-margin-top="0"
     fit-margin-left="0"
     fit-margin-right="0"
     fit-margin-bottom="0" />
  <defs
     id="defs2" />
  <g
     inkscape:label="Layer 1"
     inkscape:groupmode="layer"
     id="layer1"
     transform="translate(8.0836862,48.221597)">
    <path
       id="path1204"
       style="fill:#8e44ad;fill-opacity:1;stroke:none;stroke-width:1.10361px;stroke-linecap:butt;stroke-linejoin:miter;stroke-opacity:1"
       d="M 756.70898 576.97852 C 554.51794 577.19924 343.93607 793.54199 341.62109 844.83789 C 338.51139 913.74352 404.69023 1017.6281 460.93945 1013.9004 C 482.12591 1012.4963 515.39036 990.62494 554.08594 957.79492 A 540 540 0 0 1 846.85547 592.97461 C 817.49109 581.86725 787.19867 576.94523 756.70898 576.97852 z "
       transform="matrix(0.26458334,0,0,0.26458334,-8.0836862,-48.221597)" />
    <path
       id="path1649"
       style="fill:#8e44ad;fill-opacity:1;stroke:none;stroke-width:1.10361px;stroke-linecap:butt;stroke-linejoin:miter;stroke-opacity:1"
       d="M 1333.1328 505.16992 C 1278.1212 505.47364 1224.7063 518.06545 1178.4922 549.07812 A 540 540 0 0 1 1569.1016 851.13477 C 1603.6009 867.46522 1631.8678 876.44641 1649.1211 873.73633 C 1704.8109 864.98891 1746.4965 749.08319 1728.293 682.55273 C 1716.2757 638.63202 1515.9192 504.1608 1333.1328 505.16992 z "
       transform="matrix(0.26458334,0,0,0.26458334,-8.0836862,-48.221597)" />
    <ellipse
       style="fill:#8e44ad;fill-opacity:1;stroke-width:5.66891;stroke-linecap:round;stroke-linejoin:round"
       id="path4998"
       cx="240.21216"
       cy="159.19273"
       rx="20.492031"
       ry="36.852608" />
    <ellipse
       style="fill:#8e44ad;fill-opacity:1;stroke-width:5.66891;stroke-linecap:round;stroke-linejoin:round"
       id="ellipse5102"
       cx="310.89456"
       cy="159.19284"
       rx="20.492031"
       ry="36.852608" />
    <path
       style="fill:none;stroke:#8e44ad;stroke-width:13.2292;stroke-linecap:round;stroke-linejoin:round;stroke-miterlimit:4;stroke-dasharray:none;stroke-opacity:1"
       d="m 248.57149,323.49337 c 54.59491,41.24903 61.48846,-47.72799 61.48846,-47.72799 0,0 40.90253,61.22185 65.49078,15.09066"
       id="path5137"
       sodipodi:nodetypes="ccc" />
    <path
       style="fill:#8e44ad;fill-opacity:1;stroke:#8e44ad;stroke-width:13.2292;stroke-linecap:round;stroke-linejoin:round;stroke-miterlimit:4;stroke-dasharray:none;stroke-opacity:1"
       d="m 310.05995,275.76538 12.15786,-39.02132 -42.88434,8.95846 z"
       id="path7305" />
    <ellipse
       style="fill:#8e44ad;fill-opacity:1;stroke:none;stroke-width:13.2292;stroke-linecap:round;stroke-linejoin:round"
       id="path1673"
       cx="236.85417"
       cy="380.05054"
       rx="16.234228"
       ry="26.1626"
       transform="rotate(-13.628104)" />
  </g>
</svg>
