<?xml version="1.0" encoding="UTF-8" standalone="no"?>
<!-- Created with Inkscape (http://www.inkscape.org/) -->

<svg
   width="2160"
   height="2160"
   viewBox="0 0 571.49998 571.50001"
   version="1.1"
   id="svg5"
   inkscape:version="1.1 (c68e22c387, 2021-05-23)"
   sodipodi:docname="spider.svg"
   xmlns:inkscape="http://www.inkscape.org/namespaces/inkscape"
   xmlns:sodipodi="http://sodipodi.sourceforge.net/DTD/sodipodi-0.dtd"
   xmlns="http://www.w3.org/2000/svg"
   xmlns:svg="http://www.w3.org/2000/svg">
  <sodipodi:namedview
     id="namedview7"
     pagecolor="#505050"
     bordercolor="#ffffff"
     borderopacity="1"
     inkscape:pageshadow="0"
     inkscape:pageopacity="0"
     inkscape:pagecheckerboard="1"
     inkscape:document-units="px"
     showgrid="false"
     units="px"
     inkscape:zoom="0.38885732"
     inkscape:cx="1014.5109"
     inkscape:cy="1035.084"
     inkscape:window-width="1920"
     inkscape:window-height="1001"
     inkscape:window-x="-9"
     inkscape:window-y="-9"
     inkscape:window-maximized="1"
     inkscape:current-layer="layer1"
     fit-margin-top="0"
     fit-margin-left="0"
     fit-margin-right="0"
     fit-margin-bottom="0" />
  <defs
     id="defs2" />
  <g
     inkscape:label="Layer 1"
     inkscape:groupmode="layer"
     id="layer1"
     transform="translate(-6.4989815,31.047294)">
    <ellipse
       style="fill:#8e44ad;fill-opacity:1;stroke:none;stroke-width:10.7605;stroke-linecap:round;stroke-linejoin:round"
       id="path1913"
       cx="254.34143"
       cy="311.69247"
       rx="23.341417"
       ry="36.277626" />
    <ellipse
       style="fill:#8e44ad;fill-opacity:1;stroke:none;stroke-width:10.7605;stroke-linecap:round;stroke-linejoin:round"
       id="path1913-1"
       cx="333.36475"
       cy="312.53613"
       rx="23.341417"
       ry="36.277626" />
    <path
       style="fill:none;stroke:#8e44ad;stroke-width:19.8438;stroke-linecap:round;stroke-linejoin:round;stroke-miterlimit:4;stroke-dasharray:none;stroke-opacity:1"
       d="m 183.26528,293.15331 c 0,0 -32.02801,-26.73721 -58.61218,-23.39165 -26.584168,3.34556 -34.958684,33.2901 -34.958684,33.2901"
       id="path1626"
       sodipodi:nodetypes="czc" />
    <path
       style="fill:none;stroke:#8e44ad;stroke-width:19.8438;stroke-linecap:round;stroke-linejoin:round;stroke-miterlimit:4;stroke-dasharray:none;stroke-opacity:1"
       d="m 177.01066,244.55977 c 0,0 -32.02801,-26.73721 -58.61218,-23.39165 -26.584158,3.34556 -34.958678,33.2901 -34.958678,33.2901"
       id="path3969"
       sodipodi:nodetypes="czc" />
    <path
       style="fill:none;stroke:#8e44ad;stroke-width:19.8438;stroke-linecap:round;stroke-linejoin:round;stroke-miterlimit:4;stroke-dasharray:none;stroke-opacity:1"
       d="m 190.00102,201.25858 c 0,0 -32.02801,-26.73721 -58.61218,-23.39165 -26.58416,3.34556 -34.958685,33.2901 -34.958685,33.2901"
       id="path3971"
       sodipodi:nodetypes="czc" />
    <path
       style="fill:none;stroke:#8e44ad;stroke-width:19.8438;stroke-linecap:round;stroke-linejoin:round;stroke-miterlimit:4;stroke-dasharray:none;stroke-opacity:1"
       d="m 208.76486,164.21203 c 0,0 -32.02801,-26.73721 -58.61218,-23.39165 -26.58416,3.34556 -34.95868,33.2901 -34.95868,33.2901"
       id="path3973"
       sodipodi:nodetypes="czc" />
    <path
       style="fill:none;stroke:#8e44ad;stroke-width:19.8438;stroke-linecap:round;stroke-linejoin:round;stroke-miterlimit:4;stroke-dasharray:none;stroke-opacity:1"
       d="m 400.01953,293.15331 c 0,0 32.02801,-26.73721 58.61218,-23.39165 26.58416,3.34556 34.95868,33.2901 34.95868,33.2901"
       id="path3975"
       sodipodi:nodetypes="czc" />
    <path
       style="fill:none;stroke:#8e44ad;stroke-width:19.8438;stroke-linecap:round;stroke-linejoin:round;stroke-miterlimit:4;stroke-dasharray:none;stroke-opacity:1"
       d="m 406.27415,244.55977 c 0,0 32.02801,-26.73721 58.61218,-23.39165 26.58415,3.34556 34.95867,33.2901 34.95867,33.2901"
       id="path3977"
       sodipodi:nodetypes="czc" />
    <path
       style="fill:none;stroke:#8e44ad;stroke-width:19.8438;stroke-linecap:round;stroke-linejoin:round;stroke-miterlimit:4;stroke-dasharray:none;stroke-opacity:1"
       d="m 393.28379,201.25858 c 0,0 32.02801,-26.73721 58.61218,-23.39165 26.58416,3.34556 34.95868,33.2901 34.95868,33.2901"
       id="path3979"
       sodipodi:nodetypes="czc" />
    <path
       style="fill:none;stroke:#8e44ad;stroke-width:19.8438;stroke-linecap:round;stroke-linejoin:round;stroke-miterlimit:4;stroke-dasharray:none;stroke-opacity:1"
       d="m 374.51995,164.21203 c 0,0 32.02801,-26.73721 58.61218,-23.39165 26.58416,3.34556 34.95868,33.2901 34.95868,33.2901"
       id="path3981"
       sodipodi:nodetypes="czc" />
    <ellipse
       style="fill:#8e44ad;fill-opacity:1;stroke:none;stroke-width:4.55349;stroke-linecap:round;stroke-linejoin:round"
       id="ellipse3983"
       cx="278.09531"
       cy="260.93661"
       rx="9.8773127"
       ry="15.351486" />
    <ellipse
       style="fill:#8e44ad;fill-opacity:1;stroke:none;stroke-width:4.55349;stroke-linecap:round;stroke-linejoin:round"
       id="ellipse3985"
       cx="311.53537"
       cy="261.29364"
       rx="9.8773127"
       ry="15.351486" />
  </g>
</svg>
