<?xml version="1.0" encoding="UTF-8" standalone="no"?>
<!-- Created with Inkscape (http://www.inkscape.org/) -->

<svg
   width="2160"
   height="2160"
   viewBox="0 0 571.49998 571.50001"
   version="1.1"
   id="svg5"
   inkscape:version="1.1 (c68e22c387, 2021-05-23)"
   sodipodi:docname="Logo.svg"
   xmlns:inkscape="http://www.inkscape.org/namespaces/inkscape"
   xmlns:sodipodi="http://sodipodi.sourceforge.net/DTD/sodipodi-0.dtd"
   xmlns="http://www.w3.org/2000/svg"
   xmlns:svg="http://www.w3.org/2000/svg">
  <sodipodi:namedview
     id="namedview7"
     pagecolor="#505050"
     bordercolor="#ffffff"
     borderopacity="1"
     inkscape:pageshadow="0"
     inkscape:pageopacity="0"
     inkscape:pagecheckerboard="1"
     inkscape:document-units="px"
     showgrid="false"
     units="px"
     inkscape:zoom="0.38885732"
     inkscape:cx="813.92321"
     inkscape:cy="1101.9466"
     inkscape:window-width="2560"
     inkscape:window-height="1377"
     inkscape:window-x="1912"
     inkscape:window-y="-8"
     inkscape:window-maximized="1"
     inkscape:current-layer="layer1"
     fit-margin-top="0"
     fit-margin-left="0"
     fit-margin-right="0"
     fit-margin-bottom="0" />
  <defs
     id="defs2" />
  <g
     inkscape:label="Layer 1"
     inkscape:groupmode="layer"
     id="layer1"
     transform="translate(-6.4989815,31.047294)">
    <circle
       style="fill:#2ecc71;stroke-width:19.4298;stroke-linecap:round;stroke-linejoin:round;fill-opacity:1"
       id="path853"
       cx="292.24899"
       cy="254.7027"
       r="142.875" />
    <path
       id="path3714"
       style="fill:#219251;fill-opacity:1;stroke:none;stroke-width:0.425918px;stroke-linecap:butt;stroke-linejoin:miter;stroke-opacity:1"
       d="m 186.06145,350.32155 -16.78192,15.82332 c -12.07378,11.38386 13.16948,38.06936 21.35839,29.57341 l 21.68704,-22.49994 a 142.875,142.875 0 0 1 -26.26351,-22.89679 z" />
    <path
       id="path3714-4"
       style="fill:#219251;fill-opacity:1;stroke:none;stroke-width:0.425918px;stroke-linecap:butt;stroke-linejoin:miter;stroke-opacity:1"
       d="m 239.4401,387.54511 -12.73824,21.3119 c -8.51364,14.24381 23.04763,33.03804 28.61066,22.63169 l 18.73942,-35.05523 a 142.875,142.875 0 0 1 -34.61184,-8.88836 z" />
    <path
       id="path3714-4-8"
       style="fill:#219251;fill-opacity:1;stroke:none;stroke-width:0.425918px;stroke-linecap:butt;stroke-linejoin:miter;stroke-opacity:1"
       d="m 389.60096,359.34167 a 142.875,142.875 0 0 1 -27.60607,20.07629 l 22.24516,30.56869 c 9.76409,13.41757 39.43003,-8.245 32.03887,-17.44337 z" />
    <path
       id="path3714-4-8-5"
       style="fill:#219251;fill-opacity:1;stroke:none;stroke-width:0.425918px;stroke-linecap:butt;stroke-linejoin:miter;stroke-opacity:1"
       d="m 416.27943,325.63417 a 142.875,142.875 0 0 1 -21.12945,28.15849 l 11.36829,10.33425 c 12.27912,11.16207 36.94312,-16.05975 27.84222,-23.57066 z" />
    <path
       id="path2071"
       style="fill:#219251;fill-opacity:1;stroke:none;stroke-width:0.350615px;stroke-linecap:butt;stroke-linejoin:miter;stroke-opacity:1"
       d="m 173.36145,102.00648 c -2.99357,-0.004 -5.66038,0.70359 -7.84603,2.32802 -15.98934,11.88364 -7.67654,85.39081 -6.13348,97.91495 A 142.875,142.875 0 0 1 223.1734,129.8084 c -12.07602,-10.22716 -34.96008,-27.78028 -49.81195,-27.80192 z" />
    <path
       id="path2071-2"
       style="fill:#219251;fill-opacity:1;stroke:none;stroke-width:0.3292px;stroke-linecap:butt;stroke-linejoin:miter;stroke-opacity:1"
       d="m 365.75901,80.880635 c -15.28825,0.05383 -39.00585,23.184305 -48.60375,33.246545 a 142.875,142.875 0 0 1 69.16063,33.1618 c -0.69041,-24.8066 -3.66835,-58.408888 -14.52831,-64.877172 -1.78793,-1.064903 -3.82016,-1.538949 -6.02857,-1.531173 z" />
    <g
       id="g4623"
       transform="translate(149.35051,111.92783)"
       style="fill:#219251;fill-opacity:1">
      <path
         id="path1059"
         style="fill:#219251;fill-opacity:1;stroke:none;stroke-width:12.8717;stroke-linecap:round;stroke-linejoin:round"
         d="m 186.94294,125.05769 c -33.02669,2.6e-4 -59.79981,19.3302 -59.79936,43.17458 1.8e-4,23.84407 26.77311,43.1735 59.79936,43.17376 33.02655,4e-5 59.79996,-19.32948 59.80014,-43.17376 4.5e-4,-23.8446 -26.77314,-43.17462 -59.80014,-43.17458 z m -19.5515,26.98374 c 5.47961,2e-4 9.92166,7.32364 9.92175,16.35756 1.8e-4,9.03425 -4.44196,16.35818 -9.92175,16.35838 -5.47979,-2e-4 -9.92192,-7.32413 -9.92175,-16.35838 1.1e-4,-9.03392 4.44215,-16.35736 9.92175,-16.35756 z m 38.27486,0 c 5.47959,2e-4 9.92149,7.32362 9.92159,16.35756 1.7e-4,9.03425 -4.4418,16.35816 -9.92159,16.35838 -5.4798,-2.2e-4 -9.92208,-7.32413 -9.92191,-16.35838 9e-5,-9.03394 4.4423,-16.35736 9.92191,-16.35756 z"
         sodipodi:nodetypes="ccccccccccccccc" />
      <ellipse
         style="fill:#219251;fill-opacity:1;stroke:none;stroke-width:10.7605;stroke-linecap:round;stroke-linejoin:round"
         id="path1913"
         cx="102.26926"
         cy="71.129349"
         rx="23.341417"
         ry="36.277626" />
      <ellipse
         style="fill:#219251;fill-opacity:1;stroke:none;stroke-width:10.7605;stroke-linecap:round;stroke-linejoin:round"
         id="path1913-1"
         cx="181.29259"
         cy="71.973022"
         rx="23.341417"
         ry="36.277626" />
    </g>
  </g>
</svg>
