<?xml version="1.0" encoding="UTF-8" standalone="no"?>
<svg
   viewBox="0 0 36 36"
   version="1.1"
   id="svg14"
   sodipodi:docname="redCandy.svg"
   inkscape:version="1.1 (c68e22c387, 2021-05-23)"
   xmlns:inkscape="http://www.inkscape.org/namespaces/inkscape"
   xmlns:sodipodi="http://sodipodi.sourceforge.net/DTD/sodipodi-0.dtd"
   xmlns="http://www.w3.org/2000/svg"
   xmlns:svg="http://www.w3.org/2000/svg">
  <defs
     id="defs18" />
  <sodipodi:namedview
     id="namedview16"
     pagecolor="#505050"
     bordercolor="#ffffff"
     borderopacity="1"
     inkscape:pageshadow="0"
     inkscape:pageopacity="0"
     inkscape:pagecheckerboard="1"
     showgrid="false"
     inkscape:zoom="12.125"
     inkscape:cx="15.298969"
     inkscape:cy="10.597938"
     inkscape:window-width="2560"
     inkscape:window-height="1377"
     inkscape:window-x="1912"
     inkscape:window-y="-8"
     inkscape:window-maximized="1"
     inkscape:current-layer="svg14" />
  <path
     fill="#DD2E44"
     d="M13.298 3.538c-.531-4.075-5.627-4.3-6.248-2.125l-.933 4.041-4.041.933c-2.175.621-1.949 5.717 2.125 6.248l3.054.399c4.074.531 6.973-2.367 6.441-6.441l-.398-3.055zm18.993 18.991c4.074.531 4.299 5.629 2.125 6.249l-4.041.933-.934 4.042c-.62 2.174-5.717 1.948-6.248-2.126l-.398-3.055c-.531-4.074 2.367-6.973 6.441-6.441l3.055.398z"
     id="path2"
     style="fill:#e74c3c;fill-opacity:1" />
  <path
     fill="#BE1931"
     d="M30.49 22.294l-1.254-.164c-4.074-.531-6.973 2.367-6.441 6.441l.087.667c1.622-.268 3.45-1.236 5.014-2.8 1.29-1.288 2.172-2.758 2.594-4.144zM6.906 12.988l.349.046c4.074.531 6.973-2.367 6.441-6.441l-.119-.91c-1.317.447-2.697 1.304-3.915 2.523-1.49 1.489-2.437 3.219-2.756 4.782z"
     id="path4"
     style="fill:#e74c3c;fill-opacity:1" />
  <circle
     fill="#dd2e44"
     cx="18.778999"
     cy="17.323"
     id="circle6"
     r="10.651"
     style="fill:#e74c3c;fill-opacity:1" />
</svg>
